HIERARCHY
ROOT Hips
{
    OFFSET 0.0 0.0 0.0
    CHANNELS 6 Xposition Yposition Zposition Zrotation Xrotation Yrotation
    JOINT LeftHipJoint
    {
        OFFSET 0.1 0.0 0.0
        CHANNELS 3 Zrotation Xrotation Yrotation
        JOINT LeftUpLeg
        {
            OFFSET 0.1321136368552992 0.0 0.0
            CHANNELS 3 Zrotation Xrotation Yrotation
            JOINT LeftLeg
            {
                OFFSET 0.0 0.0 -0.42323554889782306
                CHANNELS 3 Zrotation Xrotation Yrotation
                JOINT LeftFoot
                {
                    OFFSET 0.0 0.0 -0.37456495681001506
                    CHANNELS 3 Zrotation Xrotation Yrotation
                    End Site
                    {
                        OFFSET 0.0 -0.1 0.0
                    }
                }
            }
        }
    }
    JOINT LowerBack
    {
        OFFSET 0.0 0.0 0.1
        CHANNELS 3 Zrotation Xrotation Yrotation
        JOINT Spine
        {
            OFFSET 0.0 0.0 0.33786059285276526
            CHANNELS 3 Zrotation Xrotation Yrotation
            JOINT Spine1
            {
                OFFSET 0.0 0.0 0.3364888562973147
                CHANNELS 3 Zrotation Xrotation Yrotation
                JOINT LeftShoulder
                {
                    OFFSET 0.1 0.0 0.0
                    CHANNELS 3 Zrotation Xrotation Yrotation
                    JOINT LeftArm
                    {
                        OFFSET 0.22132056768862945 0.0 0.0
                        CHANNELS 3 Zrotation Xrotation Yrotation
                        JOINT LeftForeArm
                        {
                            OFFSET 0.3353593833926317 0.0 0.0
                            CHANNELS 3 Zrotation Xrotation Yrotation
                            JOINT LeftHand
                            {
                                OFFSET 0.2810055087121426 0.0 0.0
                                CHANNELS 3 Zrotation Xrotation Yrotation
                                End Site
                                {
                                    OFFSET 0.1 0.0 0.0
                                }
                            }
                        }
                    }
                }
                JOINT Neck
                {
                    OFFSET 0.0 0.0 0.1
                    CHANNELS 3 Zrotation Xrotation Yrotation
                    JOINT Neck1
                    {
                        OFFSET 0.0 0.0 0.18471829611827914
                        CHANNELS 3 Zrotation Xrotation Yrotation
                        End Site
                        {
                            OFFSET 0.0 0.0 0.17504299680794294
                        }
                    }
                }
                JOINT RightShoulder
                {
                    OFFSET -0.1 0.0 0.0
                    CHANNELS 3 Zrotation Xrotation Yrotation
                    JOINT RightArm
                    {
                        OFFSET -0.22132056768862945 0.0 0.0
                        CHANNELS 3 Zrotation Xrotation Yrotation
                        JOINT RightForeArm
                        {
                            OFFSET -0.3353593833926317 0.0 0.0
                            CHANNELS 3 Zrotation Xrotation Yrotation
                            JOINT RightHand
                            {
                                OFFSET -0.2810055087121426 0.0 0.0
                                CHANNELS 3 Zrotation Xrotation Yrotation
                                End Site
                                {
                                    OFFSET -0.1 0.0 0.0
                                }
                            }
                        }
                    }
                }
            }
        }
    }
    JOINT RightHipJoint
    {
        OFFSET -0.1 0.0 0.0
        CHANNELS 3 Zrotation Xrotation Yrotation
        JOINT RightUpLeg
        {
            OFFSET -0.1321136368552992 0.0 0.0
            CHANNELS 3 Zrotation Xrotation Yrotation
            JOINT RightLeg
            {
                OFFSET 0.0 0.0 -0.42323554889782306
                CHANNELS 3 Zrotation Xrotation Yrotation
                JOINT RightFoot
                {
                    OFFSET 0.0 0.0 -0.37456495681001506
                    CHANNELS 3 Zrotation Xrotation Yrotation
                    End Site
                    {
                        OFFSET 0.0 -0.1 0.0
                    }
                }
            }
        }
    }
}
MOTION
Frames: 4
Frame Time: 0.03333333333333333
-0.4587077796459198 -0.38555705547332764 0.010847447440028144 -66.34766817489401 -80.18984641053459 -71.32940370759415 3.975693351829396e-16 0.0 0.0 1.7076956840374464 11.543781286174037 -39.69523165064579 1.7367677859883557 -1.3603770351975766 1.5022977249857628 0.0 0.0 1.5902773407317584e-15 3.975693351829396e-16 0.0 0.0 -0.6900885493549831 9.604099818404281 -1.0589754030721419 8.088755528790307 3.4615524901355665e-15 1.7480596344137575e-15 0.0 0.0 -7.951386703658792e-16 -43.98455839962707 11.433637876193577 74.98057064937693 -27.134491135423833 5.437489326860391e-15 4.584032092947952e-15 0.0 0.0 0.0 0.0 0.0 -7.951386703658792e-16 -15.812049537190765 5.549197001265581 -0.03246307968386934 0.0 0.0 -7.951386703658792e-16 38.70980040464479 13.317767533708027 -80.88746968264078 19.80600891292006 -3.981943933706587e-16 1.6212821202719624e-14 0.0 0.0 0.0 3.975693351829396e-16 0.0 0.0 -5.941926319098085 -26.832768377702994 47.15715895201966 46.914112920770734 30.291053033438075 -81.97440588543905 1.5902773407317588e-15 -6.361109362927035e-15 -7.951386703658792e-16
-0.4664008617401123 -0.3907567262649536 0.010976998135447454 -65.23450496678542 -79.9217620931663 -70.84109256631297 3.975693351829396e-16 0.0 0.0 1.3480304200657995 11.331978299813589 -39.78180706432147 1.6257060073772163 -1.2182154648754162 1.4367146753061042 0.0 0.0 0.0 3.975693351829396e-16 0.0 0.0 -0.7717743683876849 9.604232055387467 -0.9240788308194724 8.349303449209348 -1.2990185410542992e-14 -1.8422270767368884e-15 7.951386703658794e-16 -6.361109362927035e-15 -3.975693351829396e-16 -44.58705556119663 11.330111945348015 74.5259227517559 -27.19090142535347 -5.435232074505656e-15 -4.586708264666766e-15 0.0 0.0 0.0 7.951386703658794e-16 -6.361109362927035e-15 -3.975693351829396e-16 -17.04361564823766 5.363620308138988 0.18022182080146779 7.951386703658794e-16 -6.361109362927035e-15 -3.975693351829396e-16 35.802639725691314 12.882096314262053 -80.30777943427707 19.80110451247453 -1.934599295374732e-14 1.4797181961500211e-16 -6.3611093629270335e-15 1.7655625192200634e-31 -3.1805546814635168e-15 3.975693351829396e-16 0.0 0.0 -5.884678140933598 -29.02553080500218 48.54121429417266 49.30405616986876 29.89426497440171 -85.3077601714196 -1.7655625192200634e-31 6.361109362927033e-15 3.1805546814635164e-15
-0.4735508859157562 -0.3941987454891205 0.010932418517768334 -64.33203057979088 -79.64466738004933 -70.25691671082052 -7.951386703658792e-16 1.3793457181406746e-33 -1.987846675914698e-16 1.200636375861836 11.106350710357395 -39.583808716190006 1.5190367657542765 -1.150864770874886 0.8452456766686136 0.0 0.0 -1.5902773407317584e-15 -7.951386703658792e-16 1.3793457181406746e-33 -1.987846675914698e-16 -0.792499624730618 9.635948842995997 -1.0687869764660718 8.572192606768452 -1.6601762186768756e-14 3.2376630758648508e-15 0.0 0.0 -7.951386703658792e-16 -45.0492088665712 11.15604626428324 74.18037662067627 -27.006940512336886 -9.27789217900323e-15 -2.2280191764897626e-15 0.0 0.0 0.0 0.0 0.0 -7.951386703658792e-16 -17.696411286729255 5.169298084588132 0.35759908114144023 0.0 0.0 -7.951386703658792e-16 33.01278719420685 12.513417225109773 -79.58681852694244 19.745425813099793 -4.630895321571257e-15 1.0491037774395003e-14 0.0 0.0 0.0 -7.951386703658792e-16 1.3793457181406746e-33 -1.987846675914698e-16 -5.802740228173163 -30.895573743402025 49.61771010237114 51.18797084416682 29.6977775957059 -87.80626768233762 0.0 0.0 -1.5902773407317584e-15
-0.4775599241256714 -0.39580726623535156 0.010835316963493775 -63.35936997670346 -79.33806872848014 -69.71769464640163 -5.963540027744096e-16 0.0 0.0 0.8845494034879186 10.997471738283785 -39.18307410642212 1.4239711796593693 -1.0839748078889084 0.481779770447228 0.0 0.0 -1.5902773407317584e-15 -5.963540027744096e-16 0.0 0.0 -0.8756586150937433 9.696916029125576 -1.128487373605678 8.778923460143822 -1.4516128200242317e-16 2.0048371837405636e-15 0.0 0.0 3.975693351829396e-16 -45.57473766435703 10.788639009602543 74.04337086758403 -26.846005195190042 0.0 0.0 0.0 0.0 -3.1805546814635168e-15 0.0 0.0 3.975693351829396e-16 -17.818995409094924 4.886127122830445 0.5654631043661655 0.0 0.0 3.975693351829396e-16 30.53271688457152 12.149682494463727 -78.87123804245786 19.77171562865215 6.812714441784686e-15 2.041215898330168e-15 0.0 0.0 -3.1805546814635168e-15 -5.963540027744096e-16 0.0 0.0 -5.233968009675007 -31.647826861059592 50.55405359882456 51.548748219641325 29.57775487634977 -89.21666292799799 0.0 0.0 2.3854160110976384e-15
